<svg width="230" height="200" viewBox="0 0 230 200" fill="none" xmlns="http://www.w3.org/2000/svg">
<g clip-path="url(#clip0_5311_362348)">
<path opacity="0.25" d="M155.231 126.143C147.49 156.837 213.05 151.428 197.326 174.2C181.602 196.972 158.028 186.179 101.632 180.409C45.2366 174.639 -0.263331 222.187 7.36537 180.409C14.9941 138.631 40.8724 143.026 20.5567 117.911C0.241033 92.7961 -13.1405 2.29112 20.5567 2.29102C47.7333 2.29093 96.1514 70.3193 158.278 59.0946C220.405 47.8699 162.972 95.4504 155.231 126.143Z" fill="#A8CCF8"/>
</g>
<path d="M0.878662 74.624L120.311 44.16L154.357 163.501L31.582 194.995L0.878662 74.624Z" fill="#2538BF"/>
<path d="M5.92891 87.0031L120.357 56.5017C120.357 56.5017 129.857 116.501 150.657 160.795C128.357 165.501 35.8574 188.002 31.8574 188.001C27.8574 188 5.92891 87.0031 5.92891 87.0031Z" fill="#E7F1FD"/>
<path d="M5.92883 85.0027L120.357 54.5013C120.357 54.5013 129.857 114.501 150.657 158.794C128.357 163.501 38.8573 185.5 32.8573 185.5C26.8573 185.5 5.92883 85.0027 5.92883 85.0027Z" fill="#648CFE"/>
<path d="M4.51919 91.0505L122.417 60.9779C132.328 99.832 139.357 127.5 149.54 151.17C142.222 158.839 31.8573 183 31.8573 183C24.5561 170.517 13.6925 129.082 4.51919 91.0505Z" fill="#A8CCF8"/>
<rect x="0.763184" y="75.9736" width="122" height="22.6762" transform="rotate(-14.3095 0.763184 75.9736)" fill="#2538BF"/>
<rect x="0.268799" y="74.0371" width="122" height="18" transform="rotate(-14.3095 0.268799 74.0371)" fill="#4793F1"/>
<rect x="61.3533" y="90.7969" width="12.2383" height="12.2383" transform="rotate(-14.3095 61.3533 90.7969)" fill="#648CFE"/>
<rect x="80.5095" y="85.9111" width="12.2383" height="12.2383" transform="rotate(-14.3095 80.5095 85.9111)" fill="#E7F1FD"/>
<rect x="99.6658" y="81.0244" width="12.2383" height="12.2383" transform="rotate(-14.3095 99.6658 81.0244)" fill="#E7F1FD"/>
<rect x="37.9324" y="158.953" width="12.2383" height="12.2383" transform="rotate(-14.3095 37.9324 158.953)" fill="#E7F1FD"/>
<rect x="57.0886" y="154.067" width="12.2383" height="12.2383" transform="rotate(-14.3095 57.0886 154.067)" fill="#E7F1FD"/>
<rect x="76.2449" y="149.181" width="12.2383" height="12.2383" transform="rotate(-14.3095 76.2449 149.181)" fill="#E7F1FD"/>
<rect x="95.4011" y="144.295" width="12.2383" height="12.2383" transform="rotate(-14.3095 95.4011 144.295)" fill="#E7F1FD"/>
<rect x="28.8574" y="121.295" width="12.2383" height="12.2383" transform="rotate(-14.3095 28.8574 121.295)" fill="#E7F1FD"/>
<rect x="48.0137" y="116.41" width="12.2383" height="12.2383" transform="rotate(-14.3095 48.0137 116.41)" fill="#E7F1FD"/>
<rect x="67.1699" y="111.522" width="12.2383" height="12.2383" transform="rotate(-14.3095 67.1699 111.522)" fill="#E7F1FD"/>
<rect x="86.3262" y="106.637" width="12.2383" height="12.2383" transform="rotate(-14.3095 86.3262 106.637)" fill="#E7F1FD"/>
<rect x="105.482" y="101.75" width="12.2383" height="12.2383" transform="rotate(-14.3095 105.482 101.75)" fill="#E7F1FD"/>
<rect x="33.0459" y="139.797" width="12.2383" height="12.2383" transform="rotate(-14.3095 33.0459 139.797)" fill="#E7F1FD"/>
<rect x="52.2021" y="134.912" width="12.2383" height="12.2383" transform="rotate(-14.3095 52.2021 134.912)" fill="#E7F1FD"/>
<rect x="71.3584" y="130.024" width="12.2383" height="12.2383" transform="rotate(-14.3095 71.3584 130.024)" fill="#E7F1FD"/>
<rect x="90.5146" y="125.139" width="12.2383" height="12.2383" transform="rotate(-14.3095 90.5146 125.139)" fill="#648CFE"/>
<rect x="109.671" y="120.252" width="12.2383" height="12.2383" transform="rotate(-14.3095 109.671 120.252)" fill="#648CFE"/>
<path d="M83.9087 120.042C74.577 120.283 63.6409 129.598 69.7204 139.55C76.7119 150.994 92.2655 138.804 88.7058 131.332C87.2936 125.795 80.1951 122.95 74.818 128.978" stroke="#FD3D4A" stroke-width="2" stroke-linecap="round"/>
<path d="M89.5 112L89.7589 114.071C90.0667 116.533 91.9575 118.499 94.4055 118.902L95 119L94.4055 119.098C91.9575 119.501 90.0667 121.467 89.7589 123.929L89.5 126L89.2411 123.929C88.9333 121.467 87.0425 119.501 84.5945 119.098L84 119L84.5945 118.902C87.0425 118.499 88.9333 116.533 89.2411 114.071L89.5 112Z" fill="#FFBF39"/>
<path d="M70.5 142L70.7589 144.071C71.0667 146.533 72.9575 148.499 75.4055 148.902L76 149L75.4055 149.098C72.9575 149.501 71.0667 151.467 70.7589 153.929L70.5 156L70.2411 153.929C69.9333 151.467 68.0425 149.501 65.5945 149.098L65 149L65.5945 148.902C68.0425 148.499 69.9333 146.533 70.2411 144.071L70.5 142Z" fill="#FFBF39"/>
<g clip-path="url(#clip1_5311_362348)">
<path d="M173.612 40.4252C174.724 35.675 179.477 32.7257 184.227 33.8376C188.977 34.9496 191.926 39.7018 190.814 44.452L172.277 123.638C171.772 125.798 170.403 127.657 168.489 128.781C166.857 129.74 165.611 131.24 164.969 133.021L163.775 136.33L163.378 137.837C163.317 138.068 163.083 138.209 162.85 138.155L160.395 137.58L157.079 136.804C156.847 136.749 156.699 136.519 156.747 136.285L157.06 134.758L157.46 131.263C157.675 129.382 157.224 127.485 156.187 125.901C154.971 124.045 154.57 121.772 155.075 119.611L173.612 40.4252Z" fill="#2538BF"/>
<path d="M156.939 140.389L158.145 135.24C158.201 135.002 158.438 134.855 158.676 134.91L161.999 135.688C162.237 135.744 162.384 135.982 162.329 136.219L161.512 139.707C161.474 139.87 161.347 139.997 161.184 140.036L157.472 140.92C157.152 140.996 156.865 140.709 156.939 140.389Z" fill="#2538BF"/>
<path d="M154.791 140.372L155.996 135.222C156.052 134.985 156.29 134.837 156.527 134.893L159.851 135.671C160.088 135.726 160.236 135.964 160.18 136.201L159.364 139.689C159.326 139.852 159.199 139.98 159.036 140.018L155.323 140.902C155.004 140.978 154.716 140.692 154.791 140.372Z" fill="#FD3D4A"/>
<path d="M171.472 39.3343C172.584 34.5842 177.336 31.6348 182.087 32.7468C186.837 33.8588 189.786 38.611 188.674 43.3612L170.137 122.547C169.631 124.708 168.262 126.566 166.349 127.69C164.717 128.649 163.471 130.149 162.829 131.93L161.635 135.239L161.238 136.746C161.177 136.977 160.943 137.118 160.71 137.064L158.255 136.489L154.939 135.713C154.706 135.658 154.559 135.428 154.607 135.194L154.92 133.667L155.32 130.172C155.534 128.291 155.084 126.394 154.047 124.81C152.831 122.954 152.43 120.681 152.935 118.52L171.472 39.3343Z" fill="white"/>
<path opacity="0.6" d="M171.472 39.3343C172.584 34.5842 177.336 31.6348 182.087 32.7468C186.837 33.8588 189.786 38.611 188.674 43.3612L170.137 122.547C169.631 124.708 168.262 126.566 166.349 127.69C164.717 128.649 163.471 130.149 162.829 131.93L161.635 135.239L161.238 136.746C161.177 136.977 160.943 137.118 160.71 137.064L158.255 136.489L154.939 135.713C154.706 135.658 154.559 135.428 154.607 135.194L154.92 133.667L155.32 130.172C155.534 128.291 155.084 126.394 154.047 124.81C152.831 122.954 152.43 120.681 152.935 118.52L171.472 39.3343Z" fill="#F46670"/>
<mask id="mask0_5311_362348" style="mask-type:alpha" maskUnits="userSpaceOnUse" x="152" y="32" width="37" height="106">
<path d="M171.472 39.3334C172.584 34.5832 177.336 31.6339 182.086 32.7458C186.836 33.8578 189.786 38.61 188.674 43.3602L170.137 122.546C169.631 124.707 168.262 126.565 166.349 127.689C164.717 128.648 163.471 130.148 162.829 131.929L161.635 135.238L161.238 136.745C161.177 136.976 160.943 137.117 160.71 137.063L158.255 136.488L154.939 135.712C154.706 135.657 154.559 135.427 154.607 135.193L154.92 133.666L155.319 130.171C155.534 128.29 155.084 126.393 154.047 124.809C152.831 122.953 152.429 120.68 152.935 118.519L171.472 39.3334Z" fill="#4793F1"/>
</mask>
<g mask="url(#mask0_5311_362348)">
<path d="M195.829 41.8599C169.239 44.0271 168.67 51.9967 178.686 55.9913C193.829 62.031 202.472 45.4561 191.802 59.0617C181.133 72.6674 149.848 83.2616 155.612 92.5492C161.376 101.837 207.937 81.2102 207.232 84.2205" stroke="#FD3D4A" stroke-width="3.97506"/>
</g>
</g>
<path d="M100.452 140.128C100.578 145.713 96.1528 150.342 90.5682 150.468C84.9836 150.593 80.3544 146.168 80.2287 140.584C80.1029 134.999 84.5282 130.37 90.1128 130.244C95.6974 130.118 100.327 134.543 100.452 140.128Z" fill="white"/>
<path opacity="0.6" d="M101.145 140.507C101.271 146.092 96.8459 150.721 91.2613 150.847C85.6767 150.972 81.0476 146.547 80.9218 140.962C80.796 135.378 85.2213 130.749 90.8059 130.623C96.3905 130.497 101.02 134.922 101.145 140.507Z" fill="#252A30"/>
<path d="M100.452 140.128C100.578 145.713 96.1528 150.342 90.5682 150.468C84.9836 150.593 80.3544 146.168 80.2287 140.584C80.1029 134.999 84.5282 130.37 90.1128 130.244C95.6974 130.118 100.327 134.543 100.452 140.128Z" fill="white"/>
<circle cx="90.3902" cy="140.297" r="8.74894" transform="rotate(-1.29 90.3902 140.297)" fill="#FFBF39"/>
<path d="M90.7168 146.298C93.0092 146.246 94.8713 144.523 95.165 142.32C95.2174 141.927 94.8831 141.611 94.4869 141.62L86.74 141.794C86.3439 141.803 86.0241 142.134 86.0941 142.524C86.4868 144.712 88.4245 146.35 90.7168 146.298Z" fill="#C28030"/>
<circle cx="86.6257" cy="138.008" r="1.14798" transform="rotate(-1.29 86.6257 138.008)" fill="#C28030"/>
<circle cx="94.7146" cy="137.828" r="1.14798" transform="rotate(-1.29 94.7146 137.828)" fill="#C28030"/>
<defs>
<clipPath id="clip0_5311_362348">
<rect width="200" height="195.261" fill="white" transform="translate(0 2.29102)"/>
</clipPath>
<clipPath id="clip1_5311_362348">
<rect width="98.8367" height="72.6147" fill="white" transform="translate(108.021 93.2764) rotate(-43.6933)"/>
</clipPath>
</defs>
</svg>
